<svg width="620" height="273" viewBox="0 0 620 273" fill="black" xmlns="http://www.w3.org/2000/svg">
    <path
        d="M22.6311 197.664V166.272L117.671 38.4H166.631L73.6071 166.272L50.8551 159.648H209.543V197.664H22.6311ZM131.207 240V197.664L132.647 159.648V121.92H176.711V240H131.207ZM309.898 243.456C293.386 243.456 278.602 239.424 265.546 231.36C252.49 223.104 242.218 211.2 234.73 195.648C227.242 180.096 223.498 161.28 223.498 139.2C223.498 117.12 227.242 98.304 234.73 82.752C242.218 67.2 252.49 55.392 265.546 47.328C278.602 39.072 293.386 34.944 309.898 34.944C326.602 34.944 341.386 39.072 354.25 47.328C367.306 55.392 377.578 67.2 385.066 82.752C392.554 98.304 396.298 117.12 396.298 139.2C396.298 161.28 392.554 180.096 385.066 195.648C377.578 211.2 367.306 223.104 354.25 231.36C341.386 239.424 326.602 243.456 309.898 243.456ZM309.898 204C317.77 204 324.586 201.792 330.346 197.376C336.298 192.96 340.906 185.952 344.17 176.352C347.626 166.752 349.354 154.368 349.354 139.2C349.354 124.032 347.626 111.648 344.17 102.048C340.906 92.448 336.298 85.44 330.346 81.024C324.586 76.608 317.77 74.4 309.898 74.4C302.218 74.4 295.402 76.608 289.45 81.024C283.69 85.44 279.082 92.448 275.626 102.048C272.362 111.648 270.73 124.032 270.73 139.2C270.73 154.368 272.362 166.752 275.626 176.352C279.082 185.952 283.69 192.96 289.45 197.376C295.402 201.792 302.218 204 309.898 204ZM416.662 197.664V166.272L511.702 38.4H560.662L467.638 166.272L444.886 159.648H603.574V197.664H416.662ZM525.238 240V197.664L526.678 159.648V121.92H570.742V240H525.238Z" />
</svg>