<svg width="400" height="130" viewBox="0 0 401 130" fill="black" xmlns="http://www.w3.org/2000/svg">
    <path
        d="M38.6786 65.8962L17.3126 87.7441V118.402H0.5V0H17.3126V66.2486L81.0604 0H100.325L50.2373 53.2103L103.827 118.402H84.2127L38.6786 65.8962Z" />
    <path
        d="M226.419 108.887L233.074 96.2014C240.78 101.487 252.689 105.363 264.248 105.363C279.309 105.363 285.263 100.782 285.263 93.0299C285.263 72.9439 228.871 90.2108 228.871 54.6198C228.871 38.41 243.232 27.8384 265.999 27.8384C277.558 27.8384 290.867 31.0099 298.573 35.9433L291.568 48.6292C283.512 43.3434 274.755 41.5815 265.999 41.5815C251.988 41.5815 244.983 46.8673 244.983 53.915C244.983 75.0582 301.375 57.7913 301.375 92.6775C301.375 108.887 286.664 119.106 262.846 119.106C248.486 119.459 233.775 114.878 226.419 108.887Z" />
    <path
        d="M400.5 64.1343V118.402H385.088V106.421C379.835 114.526 369.677 119.107 355.666 119.107C335.351 119.107 322.742 108.183 322.742 92.6776C322.742 78.2297 331.849 66.601 358.468 66.601H384.038V63.4295C384.038 49.6865 375.982 41.934 360.22 41.934C349.712 41.934 338.854 45.8102 331.849 51.4484L325.194 39.1149C334.3 31.7148 347.61 27.4861 361.971 27.4861C386.84 27.8385 400.5 39.8197 400.5 64.1343ZM384.388 90.9156V78.2297H359.519C343.407 78.2297 338.854 84.5727 338.854 91.9728C338.854 100.782 346.209 106.421 358.468 106.421C370.728 106.773 380.535 101.487 384.388 90.9156Z" />
    <path d="M174.58 94.7919V118.754L184.738 112.764V88.8013L174.58 94.7919Z" />
    <path
        d="M202.601 65.5438L160.92 41.2291L137.803 27.8384L115.036 67.6581L115.386 105.011L156.717 129.326L160.92 126.859V91.6203L179.484 58.8484L198.398 69.7724V105.011L202.601 102.544V65.5438Z" />
</svg>