<svg width="512" height="512" viewBox="0 0 512 512" fill="black" xmlns="http://www.w3.org/2000/svg">
    <path
        d="M280.48 97.3322C276.947 89.9996 269.481 85.3335 261.282 85.3335C253.083 85.3335 245.684 89.9996 242.084 97.3322L199.223 185.522L103.502 199.654C95.503 200.854 88.8372 206.453 86.3708 214.119C83.9045 221.785 85.9042 230.251 91.6368 235.917L161.095 304.642L144.697 401.765C143.364 409.764 146.697 417.896 153.296 422.629C159.895 427.362 168.627 427.962 175.826 424.162L261.349 378.501L346.871 424.162C354.07 427.962 362.803 427.429 369.402 422.629C376.001 417.83 379.334 409.764 378.001 401.765L361.536 304.642L430.994 235.917C436.726 230.251 438.793 221.785 436.26 214.119C433.727 206.453 427.128 200.854 419.129 199.654L323.341 185.522L280.48 97.3322Z" />
</svg>